<svg aria-hidden="true" style="position: absolute; width: 0; height: 0; overflow: hidden;" version="1.1" xmlns="http://www.w3.org/2000/svg" xmlns:xlink="http://www.w3.org/1999/xlink">
<defs>
<symbol id="icon-arrow" viewBox="0 0 55 32">
<path d="M1.986 2.955c0.893-0.893 2.34-0.893 3.232 0l21.241 21.241 21.241-21.241c0.893-0.893 2.34-0.893 3.232 0s0.893 2.34 0 3.232l-22.857 22.857c-0.893 0.893-2.34 0.893-3.233 0l-22.857-22.857c-0.893-0.893-0.893-2.34 0-3.232z"></path>
</symbol>
<symbol id="icon-ceo" viewBox="0 0 32 32">
<path d="M31.216 14.196h-9.467l8.198-4.731-1.626-2.816-8.199 4.731 4.732-8.194-2.817-1.625-4.733 8.192v-9.46h-3.254v9.462l-4.733-8.193-2.818 1.625 4.732 8.192-8.197-4.729-1.627 2.816 8.198 4.731h-9.467v3.252h9.466l-8.197 4.731 1.626 2.816 8.199-4.731-4.734 8.194 2.817 1.625 4.735-8.193v9.461h3.254v-9.663l4.82 8.344 2.642-1.524-4.822-8.346 8.374 4.833 1.627-2.816-8.197-4.731h9.466v-3.251h0.001zM15.678 20.242c-0.581 0-1.156-0.114-1.693-0.336s-1.024-0.548-1.435-0.958c-0.411-0.41-0.737-0.898-0.959-1.434s-0.337-1.111-0.337-1.692c-0-0.581 0.114-1.156 0.336-1.692s0.548-1.024 0.959-1.435c0.411-0.411 0.898-0.736 1.435-0.959s1.112-0.337 1.692-0.337c1.173-0 2.298 0.466 3.128 1.295s1.296 1.954 1.296 3.127c0 1.173-0.466 2.297-1.295 3.127s-1.954 1.295-3.127 1.295z"></path>
</symbol>
<symbol id="icon-cmo" viewBox="0 0 28 32">
<path fill="#525252" style="fill: var(--color1, #525252)" d="M28.089 19.809l-6.933 3.962v-7.924l-6.933-4.011 6.933-3.912 6.933 3.962v7.924z"></path>
<path fill="#525252" style="fill: var(--color1, #525252)" d="M14.222 11.886l-6.933 3.962v-7.924l-6.933-3.962 6.933-3.962 6.933 3.962v7.924z"></path>
<path fill="#525252" style="fill: var(--color1, #525252)" d="M14.222 27.733l-6.933 3.962v-7.924l-6.933-3.962 6.933-3.962 6.933 3.962v7.924z"></path>
</symbol>
<symbol id="icon-google" viewBox="0 0 97 32">
<path d="M93.209 19.466l2.662 1.774c-0.863 1.272-2.93 3.455-6.502 3.455-4.436 0-7.739-3.432-7.739-7.798 0-4.646 3.339-7.798 7.366-7.798 4.051 0 6.035 3.222 6.677 4.961l0.35 0.887-10.436 4.319c0.794 1.564 2.031 2.358 3.782 2.358s2.965-0.864 3.84-2.16zM85.027 16.653l6.969-2.895c-0.385-0.969-1.529-1.657-2.895-1.657-1.739 0-4.156 1.541-4.074 4.552z"></path>
<path d="M76.598 1.152h3.362v22.833h-3.362v-22.833z"></path>
<path d="M71.298 9.708h3.245v13.868c0 5.755-3.397 8.124-7.413 8.124-3.782 0-6.058-2.545-6.91-4.611l2.977-1.237c0.537 1.272 1.832 2.778 3.933 2.778 2.58 0 4.168-1.599 4.168-4.587v-1.121h-0.117c-0.771 0.934-2.242 1.774-4.109 1.774-3.899 0-7.471-3.397-7.471-7.774 0-4.401 3.572-7.833 7.471-7.833 1.856 0 3.338 0.829 4.109 1.739h0.117v-1.121zM71.531 16.922c0-2.755-1.832-4.763-4.167-4.763-2.358 0-4.342 2.008-4.342 4.763 0 2.72 1.985 4.692 4.342 4.692 2.335 0.012 4.168-1.973 4.168-4.692h-0.001z"></path>
<path d="M41.147 16.864c0 4.494-3.502 7.798-7.798 7.798s-7.798-3.315-7.798-7.798c0-4.517 3.502-7.809 7.798-7.809s7.798 3.292 7.798 7.809zM37.739 16.864c0-2.801-2.031-4.728-4.389-4.728s-4.389 1.926-4.389 4.728c0 2.778 2.031 4.728 4.389 4.728s4.389-1.95 4.389-4.728z"></path>
<path d="M58.178 16.898c0 4.494-3.502 7.798-7.797 7.798s-7.798-3.304-7.798-7.798c0-4.517 3.502-7.798 7.798-7.798s7.797 3.269 7.797 7.798zM54.758 16.898c0-2.801-2.031-4.728-4.389-4.728s-4.389 1.926-4.389 4.728c0 2.778 2.031 4.728 4.389 4.728 2.37 0 4.389-1.961 4.389-4.728z"></path>
<path d="M12.735 21.276c-4.891 0-8.72-3.946-8.72-8.837s3.829-8.836 8.72-8.836c2.638 0 4.564 1.039 5.988 2.37l2.346-2.346c-1.984-1.903-4.634-3.35-8.335-3.35-6.7 0-12.338 5.463-12.338 12.163s5.638 12.163 12.338 12.163c3.619 0 6.35-1.191 8.486-3.409 2.194-2.195 2.871-5.276 2.871-7.774 0-0.782-0.093-1.588-0.198-2.183h-11.159v3.245h7.949c-0.233 2.031-0.875 3.42-1.821 4.366-1.144 1.156-2.953 2.428-6.128 2.428z"></path>
</symbol>
<symbol id="icon-microsoft" viewBox="0 0 149 32">
<path d="M148.799 14.355v-2.612h-3.243v-4.060l-3.215 0.984v3.076h-4.808v-1.714c0-0.798 0.179-1.409 0.53-1.816 0.35-0.403 0.849-0.607 1.486-0.607 0.458 0 0.932 0.108 1.41 0.321l0.119 0.053v-2.75l-0.056-0.020c-0.445-0.16-1.051-0.241-1.801-0.241-0.946 0-1.805 0.206-2.555 0.614-0.739 0.397-1.348 0.999-1.753 1.733-0.412 0.741-0.621 1.596-0.621 2.543v1.884h-2.258v2.612h2.258v11.002h3.242v-11.003h4.808v6.992c0 2.88 1.358 4.339 4.037 4.339 0.463-0.003 0.924-0.054 1.377-0.153 0.481-0.104 0.809-0.207 1.002-0.318l0.042-0.025v-2.636l-0.132 0.087c-0.176 0.117-0.395 0.213-0.652 0.284-0.258 0.073-0.473 0.109-0.64 0.109-0.628 0-1.092-0.169-1.38-0.503-0.291-0.336-0.439-0.926-0.439-1.749v-6.427h3.243zM124.793 23.035c-1.177 0-2.105-0.39-2.759-1.159-0.657-0.773-0.991-1.874-0.991-3.273 0-1.444 0.333-2.573 0.991-3.36 0.654-0.781 1.573-1.177 2.731-1.177 1.124 0 2.018 0.379 2.66 1.126 0.644 0.751 0.971 1.872 0.971 3.332 0 1.478-0.307 2.614-0.913 3.374-0.602 0.754-1.507 1.137-2.69 1.137zM124.938 11.415c-2.245 0-4.028 0.658-5.299 1.955s-1.915 3.093-1.915 5.337c0 2.132 0.629 3.846 1.869 5.095s2.928 1.882 5.017 1.882c2.176 0 3.923-0.667 5.194-1.982 1.27-1.314 1.915-3.092 1.915-5.285 0-2.165-0.604-3.892-1.796-5.133s-2.87-1.871-4.984-1.871zM112.496 11.415c-1.527 0-2.79 0.391-3.755 1.161-0.971 0.775-1.464 1.791-1.464 3.021 0 0.639 0.106 1.207 0.316 1.688 0.21 0.483 0.536 0.908 0.969 1.265 0.429 0.354 1.092 0.725 1.97 1.102 0.738 0.304 1.289 0.561 1.639 0.764 0.342 0.199 0.584 0.398 0.722 0.593 0.133 0.19 0.2 0.45 0.2 0.772 0 0.915-0.685 1.36-2.094 1.36-0.523 0-1.119-0.109-1.773-0.324-0.648-0.212-1.261-0.522-1.815-0.92l-0.135-0.096v3.121l0.049 0.023c0.459 0.212 1.037 0.39 1.719 0.531 0.68 0.14 1.298 0.212 1.835 0.212 1.657 0 2.992-0.392 3.965-1.167 0.98-0.78 1.477-1.82 1.477-3.092 0-0.917-0.267-1.705-0.795-2.339-0.523-0.629-1.432-1.207-2.698-1.718-1.010-0.405-1.656-0.741-1.923-1-0.257-0.249-0.388-0.602-0.388-1.049 0-0.396 0.161-0.713 0.492-0.97 0.333-0.258 0.798-0.39 1.38-0.39 0.54 0 1.093 0.085 1.642 0.252s1.031 0.392 1.435 0.665l0.132 0.091v-2.961l-0.051-0.022c-0.371-0.16-0.862-0.296-1.456-0.406-0.593-0.11-1.13-0.165-1.598-0.165zM98.826 23.035c-1.176 0-2.104-0.39-2.758-1.159-0.657-0.773-0.99-1.874-0.99-3.273 0-1.444 0.333-2.573 0.991-3.36 0.653-0.781 1.572-1.177 2.731-1.177 1.124 0 2.019 0.379 2.66 1.126 0.644 0.751 0.971 1.872 0.971 3.332 0 1.478-0.307 2.614-0.913 3.374-0.603 0.754-1.508 1.137-2.692 1.137zM98.971 11.415c-2.245 0-4.028 0.658-5.299 1.955s-1.915 3.093-1.915 5.337c0 2.132 0.629 3.846 1.869 5.095s2.928 1.882 5.016 1.882c2.175 0 3.924-0.667 5.195-1.982 1.27-1.314 1.915-3.092 1.915-5.285 0-2.165-0.604-3.892-1.797-5.133s-2.87-1.871-4.984-1.871zM86.836 14.101v-2.358h-3.202v13.614h3.202v-6.964c0-1.184 0.269-2.157 0.799-2.892 0.523-0.726 1.22-1.094 2.071-1.094 0.289 0 0.612 0.048 0.963 0.142 0.347 0.093 0.598 0.195 0.747 0.302l0.135 0.098v-3.228l-0.053-0.022c-0.298-0.127-0.72-0.191-1.253-0.191-0.805 0-1.525 0.258-2.142 0.767-0.542 0.448-0.933 1.061-1.232 1.826h-0.034zM77.899 11.415c-1.47 0-2.78 0.315-3.895 0.936-1.116 0.622-1.98 1.511-2.568 2.641-0.585 1.127-0.882 2.444-0.882 3.913 0 1.286 0.288 2.467 0.857 3.507 0.57 1.042 1.376 1.857 2.396 2.423 1.019 0.565 2.197 0.851 3.501 0.851 1.522 0 2.821-0.304 3.863-0.904l0.042-0.024v-2.934l-0.134 0.098c-0.479 0.347-1.007 0.622-1.567 0.816-0.566 0.198-1.082 0.297-1.534 0.297-1.257 0-2.265-0.393-2.998-1.168-0.734-0.776-1.106-1.866-1.106-3.238 0-1.38 0.388-2.498 1.153-3.323 0.763-0.822 1.773-1.239 3.004-1.239 1.052 0 2.078 0.356 3.048 1.060l0.134 0.097v-3.091l-0.043-0.024c-0.365-0.204-0.863-0.373-1.482-0.501-0.615-0.128-1.218-0.192-1.79-0.192zM68.348 11.743h-3.203v13.614h3.203v-13.614zM66.78 5.944c-0.527 0-0.987 0.18-1.365 0.535-0.379 0.357-0.572 0.806-0.572 1.335 0 0.522 0.19 0.962 0.566 1.309 0.373 0.346 0.834 0.521 1.371 0.521s0.999-0.175 1.377-0.521c0.38-0.348 0.573-0.788 0.573-1.31 0-0.511-0.188-0.956-0.557-1.321s-0.838-0.549-1.392-0.549zM58.79 10.739v14.618h3.268v-18.996h-4.523l-5.75 14.11-5.579-14.11h-4.707v18.997h3.071v-14.619h0.106l5.892 14.619h2.317l5.8-14.618 0.106 0z"></path>
<path d="M15.361 15.078h-15.065v-15.065h15.065v15.065z"></path>
<path d="M31.996 15.078h-15.065v-15.065h15.065v15.065z"></path>
<path d="M15.361 31.718h-15.064v-15.065h15.064v15.065z"></path>
<path d="M31.996 31.718h-15.065v-15.065h15.065v15.065z"></path>
</symbol>
<symbol id="icon-path" viewBox="0 0 41 32">
<path d="M24.325 30.411l14.133-12.89c1.301-1.188 1.301-3.112 0-4.296l-14.133-12.89-4.711 4.299 8.445 7.701h-26.804v6.076h26.804l-8.445 7.704 4.711 4.297z"></path>
</symbol>
<symbol id="icon-samsung" viewBox="0 0 207 32">
<path d="M171.147 1.078l0.397 23.266h-0.199l-6.735-23.258h-11.080v29.294h7.323l-0.397-24.052h0.198l7.22 24.052h10.597v-29.294l-7.323-0.009zM31.669 1.078l-5.536 29.605h8.015l4.059-26.928h0.199l3.964 26.928h7.911l-5.441-29.597-13.171-0.009zM76.414 1.078l-3.662 22.575h-0.199l-3.662-22.567h-12.065l-0.596 29.597h7.427l0.199-26.626h0.095l4.949 26.626h7.522l4.949-26.626h0.199l0.199 26.626h7.427l-0.691-29.597-12.091-0.009zM13.663 22.272c0.225 0.704 0.258 1.455 0.095 2.176-0.199 0.985-0.89 1.978-2.867 1.978-1.883 0-2.971-1.088-2.971-2.677v-2.867h-7.92v2.28c0 6.633 5.242 8.61 10.795 8.61 5.337 0 9.794-1.883 10.485-6.736 0.397-2.574 0.104-4.249 0-4.845-1.382-6.236-12.67-8.023-13.464-11.486-0.099-0.522-0.099-1.058 0-1.58 0.199-0.993 0.898-1.986 2.677-1.986s2.764 1.097 2.764 2.677v1.779h7.427v-2.073c0-6.434-5.838-7.427-9.992-7.427-5.251 0-9.604 1.779-10.398 6.538-0.26 1.31-0.225 2.661 0.104 3.955 1.183 6.132 11.78 7.92 13.265 11.676zM109.975 22.263c0.294 0.691 0.19 1.589 0.095 2.185-0.199 0.985-0.889 1.978-2.867 1.978-1.883 0-2.971-1.088-2.971-2.677v-2.867h-7.92v2.28c0 6.529 5.147 8.507 10.692 8.507 5.346 0 9.699-1.779 10.39-6.728 0.397-2.574 0.104-4.154 0-4.854-1.183-6.132-12.376-8.014-13.162-11.383-0.1-0.522-0.1-1.058 0-1.58 0.199-0.993 0.89-1.986 2.677-1.986 1.675 0 2.764 1.097 2.764 2.677v1.779h7.324v-2.073c0-6.434-5.743-7.427-9.897-7.427-5.242 0-9.5 1.684-10.295 6.538-0.199 1.287-0.199 2.47 0.104 3.955 1.183 6.132 11.573 7.816 13.067 11.676zM134.917 26.227c2.073 0 2.677-1.382 2.867-2.176 0.104-0.302 0.104-0.795 0.104-1.088v-21.885h7.514v21.28c0 0.596 0 1.684-0.087 1.986-0.501 5.536-4.855 7.315-10.304 7.315-5.44 0-9.793-1.779-10.295-7.324 0-0.294-0.095-1.382-0.095-1.978v-21.28h7.514v21.876c0 0.397 0 0.786 0.103 1.088 0 0.786 0.604 2.176 2.677 2.176zM196.684 25.925c2.177 0 2.867-1.382 3.066-2.185 0.095-0.294 0.095-0.786 0.095-1.088v-4.258h-3.066v-4.353h10.494v7.92c0 0.596 0 0.993-0.095 1.986-0.501 5.441-5.156 7.315-10.399 7.315-5.242 0-9.896-1.874-10.389-7.324-0.103-0.985-0.103-1.382-0.103-1.978v-12.471c0-0.492 0.103-1.485 0.103-1.986 0.691-5.536 5.147-7.315 10.389-7.315 5.243 0 9.803 1.779 10.391 7.324 0.103 0.89 0.103 1.978 0.103 1.978v0.993h-7.428v-1.684c0 0 0-0.691-0.095-1.088-0.103-0.691-0.691-2.176-2.971-2.176-2.176 0-2.763 1.382-2.97 2.176-0.095 0.389-0.095 0.89-0.095 1.382v13.559c0 0.397 0 0.795 0.095 1.088 0 0.795 0.794 2.185 2.875 2.185z"></path>
</symbol>
<symbol id="icon-lg" viewBox="0 0 69 32">
<path d="M15.975 1.234c-3.948 0-7.733 1.568-10.525 4.36s-4.359 6.577-4.359 10.525c0 3.948 1.568 7.733 4.359 10.525s6.577 4.359 10.525 4.359c3.897-0.076 7.61-1.677 10.339-4.46s4.259-6.526 4.259-10.424c0-3.898-1.529-7.641-4.259-10.424s-6.442-4.385-10.339-4.46zM15.975 3.656c0.141 0 0.439 0 0.591 0.006v1.163c-0.197-0.004-0.394-0.007-0.591-0.008-1.484-0.004-2.953 0.287-4.324 0.855s-2.615 1.402-3.662 2.454c-1.052 1.046-1.887 2.29-2.455 3.661s-0.858 2.841-0.854 4.324c0 3.018 1.174 5.857 3.309 7.986 1.046 1.052 2.291 1.886 3.662 2.454s2.84 0.858 4.324 0.855c2.863-0.005 5.618-1.095 7.709-3.050s3.364-4.629 3.562-7.484v-0.169h-7.71v-1.154l8.892-0.003v0.566c0.005 1.636-0.314 3.257-0.94 4.769s-1.544 2.885-2.704 4.039c-1.155 1.16-2.529 2.081-4.041 2.707s-3.135 0.947-4.772 0.942c-3.323 0-6.448-1.295-8.813-3.649-1.159-1.155-2.078-2.527-2.703-4.039s-0.944-3.133-0.938-4.769c0.004-3.303 1.317-6.47 3.653-8.805s5.502-3.65 8.805-3.655v0.006zM61.205 6.128c-6.223 0-9.495 3.399-9.495 9.878 0 6.448 2.957 9.94 9.461 9.94 2.985 0 5.91-0.76 7.498-1.872v-9.337h-7.715v3.587h3.618v3.365c-0.667 0.253-1.971 0.51-3.21 0.51-3.998 0-5.333-2.033-5.333-6.161 0-3.936 1.267-6.257 5.271-6.257 2.224 0 3.492 0.698 4.542 2.033l2.765-2.54c-1.684-2.413-4.638-3.145-7.405-3.145h0.003zM37.516 6.416v19.243h13.657v-3.745h-9.208v-15.501l-4.449 0.003zM11.222 9.578c0.474 0 0.929 0.188 1.264 0.524s0.524 0.79 0.524 1.264c0 0.474-0.188 0.929-0.524 1.264s-0.79 0.524-1.264 0.524c-0.474 0-0.929-0.188-1.264-0.524s-0.524-0.79-0.524-1.264c0-0.474 0.188-0.929 0.524-1.264s0.79-0.524 1.264-0.524zM15.383 9.583h1.183v11.883h2.962v1.166h-4.145v-13.048z"></path>
</symbol>
<symbol id="icon-sony" viewBox="0 0 180 32">
<path d="M64.481 0.262c6.897 0 12.416 1.722 16.632 5.556 2.883 2.613 4.493 6.335 4.448 10.237-0.011 1.925-0.41 3.828-1.174 5.595s-1.878 3.361-3.274 4.687c-3.946 3.625-10.094 5.556-16.624 5.556-6.538 0-12.581-1.932-16.587-5.556-1.444-1.291-2.595-2.877-3.374-4.651s-1.168-3.694-1.142-5.631c0-3.879 1.633-7.601 4.516-10.237 3.744-3.4 10.364-5.556 16.579-5.556zM64.503 27.745c3.452 0 6.65-1.206 8.896-3.43 2.247-2.247 3.242-4.942 3.242-8.26 0-3.175-1.108-6.148-3.242-8.26-2.202-2.172-5.489-3.407-8.896-3.407s-6.687 1.228-8.911 3.407c-2.134 2.112-3.25 5.085-3.25 8.26-0.046 3.074 1.122 6.041 3.25 8.26 2.224 2.202 5.489 3.43 8.911 3.43zM28.252 13.008c1.198 0.315 2.359 0.704 3.49 1.221 1.049 0.478 2.009 1.131 2.838 1.932 1.475 1.543 2.314 3.609 2.291 5.736 0.016 1.128-0.232 2.243-0.725 3.258s-1.217 1.899-2.113 2.583c-1.586 1.202-3.389 2.087-5.309 2.606-2.891 0.908-5.911 1.338-8.941 1.273-2.636 0-4.089-0.307-6.088-0.726l-0.577-0.12c-2.203-0.487-4.355-1.185-6.425-2.082-0.093-0.063-0.203-0.094-0.314-0.090-0.164 0.004-0.32 0.072-0.435 0.189s-0.179 0.275-0.179 0.44v1.52h-4.403v-11.068h3.924c0.024 1.122 0.381 2.212 1.026 3.13 1.588 1.947 3.295 2.696 4.92 3.295 2.748 0.899 5.631 1.378 8.507 1.468 4.141 0 6.56-1.003 7.084-1.221l0.067-0.030 0.045-0.015c0.464-0.172 2.336-0.854 2.336-2.935 0-2.052-1.752-2.501-2.898-2.793l-0.165-0.037c-1.273-0.344-4.209-0.659-7.414-0.996l-1.138-0.12c-3.006-0.306-5.996-0.743-8.964-1.31-3.729-0.824-5.197-2.187-6.111-3.033l-0.060-0.060c-1.332-1.42-2.071-3.295-2.067-5.242 0-3.714 2.546-5.961 5.669-7.339 3.34-1.498 7.309-2.164 10.783-2.164 6.141 0.022 11.135 2.022 12.933 2.95 0.726 0.389 1.086-0.090 1.086-0.449v-1.116h3.946v9.645h-3.535c-0.317-1.431-1.090-2.721-2.202-3.677-0.678-0.545-1.426-0.996-2.224-1.34-2.963-1.251-6.152-1.876-9.368-1.835-3.317 0-6.492 0.636-8.088 1.61-0.988 0.614-1.498 1.385-1.498 2.292 0 1.295 1.093 1.812 1.647 1.969 1.468 0.449 4.733 0.771 7.271 1.026l1.528 0.157c2.449 0.247 7.578 0.929 9.847 1.498zM164.295 5.542v-3.587h15.883v3.52h-3.565c-1.288 0-1.812 0.247-2.786 1.34l-10.686 12.206c-0.113 0.15-0.164 0.338-0.143 0.524v5.556c0.018 0.258 0.048 0.516 0.090 0.771 0.064 0.163 0.165 0.309 0.295 0.426s0.286 0.202 0.454 0.248c0.322 0.048 0.648 0.073 0.973 0.075h3.639v3.519h-19.275v-3.519h3.445c0.326-0.002 0.651-0.027 0.973-0.075 0.171-0.049 0.329-0.134 0.464-0.251s0.242-0.261 0.315-0.423c0.045-0.247 0.067-0.498 0.067-0.749v-5.556c0-0.187 0-0.187-0.247-0.479-3.517-4.008-7.042-8.009-10.574-12.004-0.569-0.592-1.543-1.543-3.040-1.543h-3.43v-3.52h19.38v3.52h-2.337c-0.524 0-0.883 0.524-0.434 1.093l6.582 7.87c0.067 0.090 0.112 0.090 0.202 0.022s6.695-7.825 6.74-7.893c0.054-0.072 0.094-0.153 0.117-0.24s0.028-0.178 0.015-0.267-0.043-0.175-0.088-0.252c-0.046-0.077-0.107-0.145-0.179-0.199-0.134-0.088-0.289-0.134-0.449-0.135h-2.404zM117.237 5.519h3.632c1.655 0 1.947 0.636 1.969 2.179l0.21 11.727-19.335-17.403h-13.816v3.52h3.085c2.224 0 2.381 1.228 2.381 2.321v16.572c0 0.959 0.008 2.209-1.363 2.209h-3.789v3.497h16.205v-3.519h-3.954c-1.588 0-1.647-0.726-1.677-2.269v-14.093l22.263 19.852h5.669l-0.299-22.435c0.030-1.633 0.142-2.179 1.82-2.179h3.542v-3.52h-16.542v3.542z"></path>
</symbol>
<symbol id="icon-slack" viewBox="0 0 122 32">
<path d="M39.118 24.822l1.52-3.537c1.642 1.229 3.819 1.866 5.972 1.866 1.595 0 2.594-0.614 2.594-1.548-0.024-2.599-9.523-0.563-9.593-7.092-0.024-3.312 2.912-5.869 7.073-5.869 2.473 0 4.944 0.615 6.708 2.017l-1.421 3.607c-1.614-1.033-3.622-1.769-5.531-1.769-1.299 0-2.153 0.615-2.153 1.398 0.024 2.552 9.593 1.154 9.691 7.389 0 3.387-2.86 5.769-6.975 5.769-3.012 0-5.78-0.711-7.886-2.232zM97.36 20.009c-0.475 0.846-1.217 1.511-2.11 1.89s-1.887 0.451-2.825 0.204-1.767-0.798-2.358-1.568c-0.591-0.769-0.91-1.713-0.906-2.683-0.001-0.577 0.11-1.148 0.33-1.681s0.542-1.018 0.949-1.426 0.891-0.732 1.423-0.953c0.532-0.221 1.103-0.335 1.68-0.335 1.637 0 3.058 0.91 3.819 2.234l4.184-2.332c-1.567-2.796-4.579-4.715-8.003-4.715-5.071 0-9.181 4.129-9.181 9.208s4.11 9.203 9.181 9.203c1.634 0.003 3.239-0.432 4.647-1.262s2.567-2.022 3.356-3.453l-4.185-2.331zM56.085 1.010h5.24v25.702h-5.24v-25.702zM103.604 1.010v25.702h5.234v-7.707l6.22 7.707h6.708l-7.909-9.157 7.322-8.542h-6.416l-5.925 7.092v-15.095l-5.234-0.001zM76.893 20.061c-0.759 1.253-2.326 2.181-4.090 2.181-0.576-0-1.147-0.114-1.678-0.335s-1.015-0.544-1.422-0.952c-0.406-0.408-0.729-0.892-0.949-1.424s-0.332-1.103-0.332-1.679c-0.001-0.576 0.112-1.147 0.332-1.68s0.542-1.017 0.948-1.425c0.407-0.408 0.89-0.732 1.422-0.954s1.102-0.336 1.679-0.336c1.764 0 3.331 0.98 4.090 2.256v4.348zM76.893 9.013v2.090c-0.857-1.451-2.988-2.459-5.215-2.459-4.602 0-8.223 4.077-8.223 9.181 0 5.108 3.622 9.231 8.223 9.231 2.228 0 4.358-1.009 5.215-2.453v2.088h5.24v-17.677h-5.24zM6.733 20.032c0 1.793-1.445 3.242-3.233 3.242-0.425-0-0.846-0.084-1.239-0.248s-0.749-0.402-1.049-0.703c-0.3-0.301-0.538-0.659-0.7-1.052s-0.245-0.814-0.244-1.24c-0.001-0.425 0.082-0.846 0.244-1.238s0.4-0.75 0.7-1.050c0.3-0.301 0.657-0.539 1.049-0.702s0.813-0.246 1.238-0.246h3.233v3.236zM8.346 20.032c-0.001-0.425 0.082-0.846 0.244-1.239s0.4-0.75 0.7-1.050c0.3-0.301 0.657-0.539 1.050-0.702s0.813-0.246 1.238-0.246c0.425-0 0.846 0.084 1.238 0.246s0.749 0.401 1.049 0.702 0.538 0.658 0.7 1.051c0.162 0.393 0.245 0.814 0.244 1.239v8.101c0.001 0.425-0.082 0.846-0.244 1.239s-0.4 0.75-0.7 1.051c-0.3 0.301-0.657 0.54-1.049 0.703s-0.813 0.247-1.239 0.248c-0.425-0-0.846-0.084-1.239-0.247s-0.749-0.402-1.050-0.703c-0.3-0.301-0.538-0.659-0.7-1.052s-0.245-0.815-0.244-1.24v-8.101zM11.578 7.026c-0.425-0-0.846-0.084-1.239-0.247s-0.749-0.402-1.050-0.703c-0.3-0.301-0.538-0.659-0.7-1.052s-0.245-0.815-0.244-1.24c-0.001-0.425 0.082-0.846 0.244-1.239s0.4-0.75 0.7-1.050c0.3-0.301 0.657-0.539 1.050-0.702s0.813-0.246 1.238-0.246c0.425-0 0.845 0.083 1.238 0.246s0.749 0.401 1.049 0.702 0.538 0.657 0.7 1.050c0.162 0.393 0.245 0.813 0.244 1.238v3.242h-3.232zM11.578 8.672c0.425-0 0.845 0.083 1.238 0.246s0.749 0.401 1.049 0.702c0.3 0.301 0.538 0.657 0.7 1.050s0.245 0.813 0.244 1.238c0 1.792-1.445 3.242-3.232 3.242h-8.101c-0.425-0-0.846-0.084-1.239-0.247s-0.75-0.402-1.050-0.703c-0.3-0.301-0.538-0.659-0.7-1.052s-0.245-0.815-0.244-1.24c-0.001-0.425 0.082-0.846 0.244-1.239s0.4-0.75 0.7-1.050c0.3-0.301 0.657-0.539 1.050-0.702s0.813-0.246 1.238-0.246h8.101zM24.53 11.908c-0.001-0.425 0.082-0.846 0.244-1.238s0.4-0.75 0.7-1.050c0.3-0.301 0.657-0.539 1.049-0.702s0.813-0.246 1.238-0.246c0.425-0 0.846 0.083 1.238 0.246s0.749 0.401 1.050 0.702c0.3 0.301 0.538 0.658 0.7 1.050s0.245 0.814 0.244 1.239c0 1.792-1.445 3.242-3.233 3.242h-3.232v-3.242zM22.916 11.908c0 1.792-1.445 3.242-3.231 3.242-0.425-0-0.846-0.084-1.239-0.247s-0.75-0.402-1.050-0.703c-0.3-0.301-0.538-0.659-0.7-1.052s-0.245-0.815-0.244-1.24v-8.125c-0.001-0.425 0.082-0.846 0.244-1.239s0.4-0.75 0.7-1.050c0.3-0.301 0.657-0.539 1.050-0.702s0.813-0.246 1.238-0.246c0.425-0 0.845 0.083 1.238 0.246s0.749 0.401 1.049 0.702c0.3 0.301 0.538 0.657 0.7 1.050s0.245 0.813 0.244 1.238v8.125zM19.684 24.897c0.425-0 0.846 0.083 1.238 0.246s0.749 0.401 1.049 0.702c0.3 0.301 0.538 0.658 0.7 1.051s0.245 0.814 0.244 1.239c0.001 0.425-0.082 0.846-0.244 1.239s-0.4 0.75-0.7 1.051c-0.3 0.301-0.657 0.54-1.049 0.703s-0.813 0.247-1.238 0.248c-0.425-0-0.846-0.084-1.239-0.247s-0.75-0.402-1.050-0.703c-0.3-0.301-0.538-0.659-0.7-1.052s-0.245-0.815-0.244-1.24v-3.236h3.233zM19.684 23.274c-0.425-0-0.846-0.084-1.239-0.247s-0.75-0.402-1.050-0.703c-0.3-0.301-0.538-0.659-0.7-1.052s-0.245-0.815-0.244-1.24c-0.001-0.425 0.082-0.846 0.244-1.239s0.4-0.75 0.7-1.050c0.3-0.301 0.657-0.539 1.050-0.702s0.813-0.246 1.238-0.246h8.101c0.425-0 0.846 0.084 1.238 0.246s0.749 0.401 1.049 0.702 0.538 0.658 0.7 1.051c0.162 0.393 0.245 0.814 0.244 1.239 0.001 0.425-0.082 0.846-0.244 1.239s-0.4 0.75-0.7 1.051c-0.3 0.301-0.657 0.54-1.049 0.703s-0.813 0.247-1.239 0.248h-8.101z"></path>
</symbol>
</defs>
</svg>
