<svg width="34" height="34" viewBox="0 0 34 34" fill="none" xmlns="http://www.w3.org/2000/svg">
<g clip-path="url(#clip0_1_247)">
<path d="M33.1674 15.0835H23.1088L31.8196 10.0564L30.0921 7.06443L21.3802 12.0914L26.4084 3.38493L23.4158 1.65792L18.3865 10.3622V0.310425H14.9294V10.3633L9.90009 1.65792L6.90626 3.38493L11.9345 12.0892L3.22478 7.06443L1.49627 10.0564L10.2071 15.0835H0.148438V18.5385H10.206L1.49627 23.5656L3.22368 26.5575L11.9356 21.5305L6.90626 30.237L9.89899 31.9641L14.9294 23.2586V33.3104H18.3865V23.043L23.5081 31.909L26.315 30.2898L21.1921 21.4217L30.0899 26.5564L31.8185 23.5645L23.1088 18.5374H33.1663V15.0835H33.1674ZM16.6579 21.5074C16.0408 21.5075 15.4297 21.3861 14.8595 21.15C14.2894 20.914 13.7713 20.568 13.3349 20.1317C12.8985 19.6956 12.5523 19.1777 12.316 18.6077C12.0798 18.0377 11.9582 17.4268 11.9581 16.8099C11.958 16.1929 12.0795 15.5819 12.3156 15.0119C12.5518 14.4419 12.8978 13.9239 13.3342 13.4876C13.7704 13.0514 14.2883 12.7052 14.8586 12.4691C15.4287 12.2329 16.0397 12.1113 16.6568 12.1112C17.9031 12.1111 19.0984 12.6059 19.9798 13.4869C20.8612 14.3679 21.3565 15.5628 21.3566 16.8088C21.3567 18.0547 20.8618 19.2498 19.9806 20.131C19.0994 21.0123 17.9042 21.5073 16.6579 21.5074Z" fill="url(#paint0_linear_1_247)"/>
</g>
<defs>
<linearGradient id="paint0_linear_1_247" x1="16.6579" y1="0.310425" x2="16.6579" y2="33.3104" gradientUnits="userSpaceOnUse">
<stop stop-color="#3171DE"/>
<stop offset="1" stop-color="#704AF2"/>
</linearGradient>
<clipPath id="clip0_1_247">
<rect width="33" height="33" fill="white" transform="translate(0.148438 0.310425)"/>
</clipPath>
</defs>
</svg>
